<?xml version="1.0" encoding="UTF-8" standalone="no"?>
<!DOCTYPE svg PUBLIC "-//W3C//DTD SVG 1.1//EN"
 "http://www.w3.org/Graphics/SVG/1.1/DTD/svg11.dtd">
<!-- Generated by graphviz version 10.0.1 (20240210.2158)
 -->
<!-- Title: call_graph Pages: 1 -->
<svg width="942pt" height="1635pt"
 viewBox="0.00 0.00 942.25 1635.50" xmlns="http://www.w3.org/2000/svg" xmlns:xlink="http://www.w3.org/1999/xlink">
<g id="graph0" class="graph" transform="scale(1 1) rotate(0) translate(4 1631.5)">
<title>call_graph</title>
<polygon fill="white" stroke="none" points="-4,4 -4,-1631.5 938.25,-1631.5 938.25,4 -4,4"/>
<!-- N0 -->
<g id="node1" class="node">
<title>N0</title>
<polygon fill="none" stroke="black" points="395.38,-300 68.88,-300 68.88,-235 395.38,-235 395.38,-300"/>
<text text-anchor="middle" x="232.12" y="-284.6" font-family="Times,serif" font-size="12.00">Ray\ServiceLocator\CacheReader::Ray\ServiceLocator\{closure}</text>
<text text-anchor="middle" x="232.12" y="-270.35" font-family="Times,serif" font-size="12.00">Inc: 0.045 ms (2.6%)</text>
<text text-anchor="middle" x="232.12" y="-256.1" font-family="Times,serif" font-size="12.00">Excl: 0.040 ms (2.3%)</text>
<text text-anchor="middle" x="232.12" y="-241.85" font-family="Times,serif" font-size="12.00">18 total calls</text>
</g>
<!-- N1 -->
<g id="node2" class="node">
<title>N1</title>
<polygon fill="none" stroke="black" points="324.25,-805 0,-805 0,-740 324.25,-740 324.25,-805"/>
<text text-anchor="middle" x="162.12" y="-789.6" font-family="Times,serif" font-size="12.00">BEAR\Resource\NamedParamMetas::getAnnotationParamMetas</text>
<text text-anchor="middle" x="162.12" y="-775.35" font-family="Times,serif" font-size="12.00">Inc: 0.081 ms (4.6%)</text>
<text text-anchor="middle" x="162.12" y="-761.1" font-family="Times,serif" font-size="12.00">Excl: 0.059 ms (3.4%)</text>
<text text-anchor="middle" x="162.12" y="-746.85" font-family="Times,serif" font-size="12.00">1 total calls</text>
</g>
<!-- N1&#45;&gt;N0 -->
<g id="edge1" class="edge">
<title>N1&#45;&gt;N0</title>
<path fill="none" stroke="grey" d="M156.17,-739.61C144.16,-668.01 122.02,-489.98 169.12,-352.5 174.4,-337.1 183.67,-322.22 193.49,-309.37"/>
<polygon fill="grey" stroke="grey" points="196.22,-311.56 199.75,-301.58 190.76,-307.18 196.22,-311.56"/>
<text text-anchor="middle" x="165.12" y="-625.7" font-family="Times,serif" font-size="14.00">10 calls</text>
<text text-anchor="middle" x="182.7" y="-303.59" font-family="Times,serif" font-size="14.00">40.0%</text>
<text text-anchor="middle" x="138.17" y="-726.31" font-family="Times,serif" font-size="14.00">81.8%</text>
</g>
<!-- N2 -->
<g id="node3" class="node">
<title>N2</title>
<polygon fill="none" stroke="black" points="356.38,-1005.5 113.88,-1005.5 113.88,-940.5 356.38,-940.5 356.38,-1005.5"/>
<text text-anchor="middle" x="235.12" y="-990.1" font-family="Times,serif" font-size="12.00">BEAR\Resource\NamedParamMetas::__invoke</text>
<text text-anchor="middle" x="235.12" y="-975.85" font-family="Times,serif" font-size="12.00">Inc: 0.090 ms (5.1%)</text>
<text text-anchor="middle" x="235.12" y="-961.6" font-family="Times,serif" font-size="12.00">Excl: 0.006 ms (0.3%)</text>
<text text-anchor="middle" x="235.12" y="-947.35" font-family="Times,serif" font-size="12.00">1 total calls</text>
</g>
<!-- N2&#45;&gt;N1 -->
<g id="edge2" class="edge">
<title>N2&#45;&gt;N1</title>
<path fill="none" stroke="grey" d="M223.4,-940.11C211,-906.39 191.38,-853.05 177.69,-815.83"/>
<polygon fill="grey" stroke="grey" points="181.08,-814.91 174.35,-806.73 174.51,-817.33 181.08,-814.91"/>
<text text-anchor="middle" x="232.12" y="-909.2" font-family="Times,serif" font-size="14.00">1 call</text>
<text text-anchor="middle" x="152.45" y="-808.51" font-family="Times,serif" font-size="14.00">100.0%</text>
<text text-anchor="middle" x="205.4" y="-926.81" font-family="Times,serif" font-size="14.00">96.4%</text>
</g>
<!-- N3 -->
<g id="node4" class="node">
<title>N3</title>
<polygon fill="none" stroke="black" points="363.62,-1123 110.62,-1123 110.62,-1058 363.62,-1058 363.62,-1123"/>
<text text-anchor="middle" x="237.12" y="-1107.6" font-family="Times,serif" font-size="12.00">BEAR\Resource\NamedParameter::getParameters</text>
<text text-anchor="middle" x="237.12" y="-1093.35" font-family="Times,serif" font-size="12.00">Inc: 0.096 ms (5.5%)</text>
<text text-anchor="middle" x="237.12" y="-1079.1" font-family="Times,serif" font-size="12.00">Excl: 0.006 ms (0.3%)</text>
<text text-anchor="middle" x="237.12" y="-1064.85" font-family="Times,serif" font-size="12.00">1 total calls</text>
</g>
<!-- N3&#45;&gt;N2 -->
<g id="edge3" class="edge">
<title>N3&#45;&gt;N2</title>
<path fill="none" stroke="grey" d="M236.57,-1057.63C236.36,-1045.14 236.11,-1030.6 235.87,-1017.18"/>
<polygon fill="grey" stroke="grey" points="239.37,-1017.21 235.7,-1007.28 232.37,-1017.34 239.37,-1017.21"/>
<text text-anchor="middle" x="252.12" y="-1026.7" font-family="Times,serif" font-size="14.00">1 call</text>
<text text-anchor="middle" x="214.3" y="-1008.96" font-family="Times,serif" font-size="14.00">100.0%</text>
<text text-anchor="middle" x="215.2" y="-1044.33" font-family="Times,serif" font-size="14.00">100.0%</text>
</g>
<!-- N4 -->
<g id="node5" class="node">
<title>N4</title>
<polygon fill="yellow" stroke="black" points="650.75,-65 461.5,-65 461.5,0 650.75,0 650.75,-65"/>
<text text-anchor="middle" x="556.12" y="-49.6" font-family="Times,serif" font-size="12.00">Rize\UriTemplate::createNodeParser</text>
<text text-anchor="middle" x="556.12" y="-35.35" font-family="Times,serif" font-size="12.00">Inc: 0.018 ms (1.0%)</text>
<text text-anchor="middle" x="556.12" y="-21.1" font-family="Times,serif" font-size="12.00">Excl: 0.018 ms (1.0%)</text>
<text text-anchor="middle" x="556.12" y="-6.85" font-family="Times,serif" font-size="12.00">1 total calls</text>
</g>
<!-- N5 -->
<g id="node6" class="node">
<title>N5</title>
<polygon fill="yellow" stroke="black" points="636.5,-182.5 475.75,-182.5 475.75,-117.5 636.5,-117.5 636.5,-182.5"/>
<text text-anchor="middle" x="556.12" y="-167.1" font-family="Times,serif" font-size="12.00">Rize\UriTemplate::__construct</text>
<text text-anchor="middle" x="556.12" y="-152.85" font-family="Times,serif" font-size="12.00">Inc: 0.020 ms (1.1%)</text>
<text text-anchor="middle" x="556.12" y="-138.6" font-family="Times,serif" font-size="12.00">Excl: 0.002 ms (0.1%)</text>
<text text-anchor="middle" x="556.12" y="-124.35" font-family="Times,serif" font-size="12.00">1 total calls</text>
</g>
<!-- N5&#45;&gt;N4 -->
<g id="edge5" class="edge">
<title>N5&#45;&gt;N4</title>
<path fill="none" stroke="grey" stroke-width="10" d="M556.12,-117.13C556.12,-107.67 556.12,-97.03 556.12,-86.59"/>
<polygon fill="grey" stroke="grey" stroke-width="10" points="573.63,-92.86 556.13,-72.86 538.63,-92.86 573.63,-92.86"/>
<text text-anchor="middle" x="571.12" y="-86.2" font-family="Times,serif" font-size="14.00">1 call</text>
<text text-anchor="middle" x="534.75" y="-68.46" font-family="Times,serif" font-size="14.00">100.0%</text>
<text text-anchor="middle" x="534.75" y="-103.83" font-family="Times,serif" font-size="14.00">100.0%</text>
</g>
<!-- N6 -->
<g id="node7" class="node">
<title>N6</title>
<polygon fill="yellow" stroke="black" points="617.38,-300 494.88,-300 494.88,-235 617.38,-235 617.38,-300"/>
<text text-anchor="middle" x="556.12" y="-284.6" font-family="Times,serif" font-size="12.00">uri_template</text>
<text text-anchor="middle" x="556.12" y="-270.35" font-family="Times,serif" font-size="12.00">Inc: 0.045 ms (2.6%)</text>
<text text-anchor="middle" x="556.12" y="-256.1" font-family="Times,serif" font-size="12.00">Excl: 0.023 ms (1.3%)</text>
<text text-anchor="middle" x="556.12" y="-241.85" font-family="Times,serif" font-size="12.00">1 total calls</text>
</g>
<!-- N6&#45;&gt;N5 -->
<g id="edge6" class="edge">
<title>N6&#45;&gt;N5</title>
<path fill="none" stroke="grey" stroke-width="10" d="M556.12,-234.63C556.12,-225.17 556.12,-214.53 556.12,-204.09"/>
<polygon fill="grey" stroke="grey" stroke-width="10" points="573.63,-210.36 556.13,-190.36 538.63,-210.36 573.63,-210.36"/>
<text text-anchor="middle" x="571.12" y="-203.7" font-family="Times,serif" font-size="14.00">1 call</text>
<text text-anchor="middle" x="534.75" y="-185.96" font-family="Times,serif" font-size="14.00">100.0%</text>
<text text-anchor="middle" x="538.12" y="-221.33" font-family="Times,serif" font-size="14.00">90.9%</text>
</g>
<!-- N7 -->
<g id="node8" class="node">
<title>N7</title>
<polygon fill="red" stroke="black" points="934.25,-604.5 178,-604.5 178,-352.5 934.25,-352.5 934.25,-604.5"/>
<text text-anchor="middle" x="556.12" y="-524.75" font-family="Times,serif" font-size="35.00">BEAR\Resource\EmbedInterceptor::embedResource</text>
<text text-anchor="middle" x="556.12" y="-485" font-family="Times,serif" font-size="35.00">Inc: 1.553 ms (88.8%)</text>
<text text-anchor="middle" x="556.12" y="-445.25" font-family="Times,serif" font-size="35.00">Excl: 1.481 ms (84.7%)</text>
<text text-anchor="middle" x="556.12" y="-405.5" font-family="Times,serif" font-size="35.00">1 total calls</text>
</g>
<!-- N7&#45;&gt;N0 -->
<g id="edge8" class="edge">
<title>N7&#45;&gt;N0</title>
<path fill="none" stroke="grey" d="M361.58,-352C336.05,-335.54 311.65,-319.8 291.05,-306.51"/>
<polygon fill="grey" stroke="grey" points="293.13,-303.69 282.83,-301.21 289.34,-309.57 293.13,-303.69"/>
<text text-anchor="middle" x="345.75" y="-321.2" font-family="Times,serif" font-size="14.00">8 calls</text>
<text text-anchor="middle" x="263.56" y="-303.59" font-family="Times,serif" font-size="14.00">60.0%</text>
<text text-anchor="middle" x="343.58" y="-338.7" font-family="Times,serif" font-size="14.00">37.5%</text>
</g>
<!-- N7&#45;&gt;N6 -->
<g id="edge7" class="edge">
<title>N7&#45;&gt;N6</title>
<path fill="none" stroke="grey" stroke-width="10" d="M556.12,-352C556.12,-341.42 556.12,-331.14 556.12,-321.62"/>
<polygon fill="grey" stroke="grey" stroke-width="10" points="573.63,-327.98 556.13,-307.98 538.63,-327.98 573.63,-327.98"/>
<text text-anchor="middle" x="571.12" y="-321.2" font-family="Times,serif" font-size="14.00">1 call</text>
<text text-anchor="middle" x="534.75" y="-303.59" font-family="Times,serif" font-size="14.00">100.0%</text>
<text text-anchor="middle" x="538.12" y="-338.7" font-family="Times,serif" font-size="14.00">62.5%</text>
</g>
<!-- N8 -->
<g id="node9" class="node">
<title>N8</title>
<polygon fill="yellow" stroke="black" points="666.25,-722 444,-722 444,-657 666.25,-657 666.25,-722"/>
<text text-anchor="middle" x="555.12" y="-706.6" font-family="Times,serif" font-size="12.00">BEAR\Resource\EmbedInterceptor::invoke</text>
<text text-anchor="middle" x="555.12" y="-692.35" font-family="Times,serif" font-size="12.00">Inc: 1.583 ms (90.5%)</text>
<text text-anchor="middle" x="555.12" y="-678.1" font-family="Times,serif" font-size="12.00">Excl: 0.008 ms (0.5%)</text>
<text text-anchor="middle" x="555.12" y="-663.85" font-family="Times,serif" font-size="12.00">1 total calls</text>
</g>
<!-- N8&#45;&gt;N7 -->
<g id="edge9" class="edge">
<title>N8&#45;&gt;N7</title>
<path fill="none" stroke="grey" stroke-width="10" d="M555.28,-656.76C555.32,-647.81 555.37,-637.44 555.42,-626.31"/>
<polygon fill="grey" stroke="grey" stroke-width="10" points="572.89,-632.53 555.49,-612.44 537.89,-632.36 572.89,-632.53"/>
<text text-anchor="middle" x="571.12" y="-625.7" font-family="Times,serif" font-size="14.00">1 call</text>
<text text-anchor="middle" x="534.15" y="-608.05" font-family="Times,serif" font-size="14.00">100.0%</text>
<text text-anchor="middle" x="537.28" y="-643.46" font-family="Times,serif" font-size="14.00">98.6%</text>
</g>
<!-- N9 -->
<g id="node10" class="node">
<title>N9</title>
<polygon fill="yellow" stroke="black" points="669.62,-888 428.62,-888 428.62,-823 669.62,-823 669.62,-888"/>
<text text-anchor="middle" x="549.12" y="-872.6" font-family="Times,serif" font-size="12.00">Ray\Aop\ReflectiveMethodInvocation::proceed</text>
<text text-anchor="middle" x="549.12" y="-858.35" font-family="Times,serif" font-size="12.00">Inc: 1.587 ms (90.7%)</text>
<text text-anchor="middle" x="549.12" y="-844.1" font-family="Times,serif" font-size="12.00">Excl: 0.004 ms (0.2%)</text>
<text text-anchor="middle" x="549.12" y="-829.85" font-family="Times,serif" font-size="12.00">1 total calls</text>
</g>
<!-- N9&#45;&gt;N8 -->
<g id="edge10" class="edge">
<title>N9&#45;&gt;N8</title>
<path fill="none" stroke="grey" stroke-width="10" d="M550.28,-822.88C551.1,-800.49 552.22,-769.92 553.18,-743.8"/>
<polygon fill="grey" stroke="grey" stroke-width="10" points="570.44,-750.52 553.68,-729.89 535.46,-749.24 570.44,-750.52"/>
<text text-anchor="middle" x="569.12" y="-767.45" font-family="Times,serif" font-size="14.00">1 call</text>
<text text-anchor="middle" x="532.59" y="-725.5" font-family="Times,serif" font-size="14.00">100.0%</text>
<text text-anchor="middle" x="528.91" y="-809.58" font-family="Times,serif" font-size="14.00">100.0%</text>
</g>
<!-- N10 -->
<g id="node11" class="node">
<title>N10</title>
<polygon fill="yellow" stroke="black" points="714,-1005.5 376.25,-1005.5 376.25,-940.5 714,-940.5 714,-1005.5"/>
<text text-anchor="middle" x="545.12" y="-990.1" font-family="Times,serif" font-size="12.00">MyVendor\MyProject\Resource\Page\Halo_2050715812::_intercept</text>
<text text-anchor="middle" x="545.12" y="-975.85" font-family="Times,serif" font-size="12.00">Inc: 1.632 ms (93.3%)</text>
<text text-anchor="middle" x="545.12" y="-961.6" font-family="Times,serif" font-size="12.00">Excl: 0.042 ms (2.4%)</text>
<text text-anchor="middle" x="545.12" y="-947.35" font-family="Times,serif" font-size="12.00">1 total calls</text>
</g>
<!-- N10&#45;&gt;N9 -->
<g id="edge11" class="edge">
<title>N10&#45;&gt;N9</title>
<path fill="none" stroke="grey" stroke-width="10" d="M546.23,-940.13C546.56,-930.67 546.92,-920.03 547.29,-909.59"/>
<polygon fill="grey" stroke="grey" stroke-width="10" points="564.56,-916.44 547.76,-895.85 529.58,-915.23 564.56,-916.44"/>
<text text-anchor="middle" x="563.12" y="-909.2" font-family="Times,serif" font-size="14.00">1 call</text>
<text text-anchor="middle" x="526.65" y="-891.46" font-family="Times,serif" font-size="14.00">100.0%</text>
<text text-anchor="middle" x="528.23" y="-926.83" font-family="Times,serif" font-size="14.00">99.8%</text>
</g>
<!-- N11 -->
<g id="node12" class="node">
<title>N11</title>
<polygon fill="yellow" stroke="black" points="703.38,-1123 382.88,-1123 382.88,-1058 703.38,-1058 703.38,-1123"/>
<text text-anchor="middle" x="543.12" y="-1107.6" font-family="Times,serif" font-size="12.00">MyVendor\MyProject\Resource\Page\Halo_2050715812::onGet</text>
<text text-anchor="middle" x="543.12" y="-1093.35" font-family="Times,serif" font-size="12.00">Inc: 1.635 ms (93.5%)</text>
<text text-anchor="middle" x="543.12" y="-1079.1" font-family="Times,serif" font-size="12.00">Excl: 0.003 ms (0.2%)</text>
<text text-anchor="middle" x="543.12" y="-1064.85" font-family="Times,serif" font-size="12.00">1 total calls</text>
</g>
<!-- N11&#45;&gt;N10 -->
<g id="edge12" class="edge">
<title>N11&#45;&gt;N10</title>
<path fill="none" stroke="grey" stroke-width="10" d="M543.68,-1057.63C543.84,-1048.17 544.02,-1037.53 544.21,-1027.09"/>
<polygon fill="grey" stroke="grey" stroke-width="10" points="561.59,-1033.65 544.44,-1013.35 526.6,-1033.05 561.59,-1033.65"/>
<text text-anchor="middle" x="560.12" y="-1026.7" font-family="Times,serif" font-size="14.00">1 call</text>
<text text-anchor="middle" x="523.2" y="-1008.96" font-family="Times,serif" font-size="14.00">100.0%</text>
<text text-anchor="middle" x="522.3" y="-1044.33" font-family="Times,serif" font-size="14.00">100.0%</text>
</g>
<!-- N12 -->
<g id="node13" class="node">
<title>N12</title>
<polygon fill="yellow" stroke="black" points="498.38,-1240.5 279.88,-1240.5 279.88,-1175.5 498.38,-1175.5 498.38,-1240.5"/>
<text text-anchor="middle" x="389.12" y="-1225.1" font-family="Times,serif" font-size="12.00">BEAR\Resource\PhpClassInvoker::invoke</text>
<text text-anchor="middle" x="389.12" y="-1210.85" font-family="Times,serif" font-size="12.00">Inc: 1.738 ms (99.4%)</text>
<text text-anchor="middle" x="389.12" y="-1196.6" font-family="Times,serif" font-size="12.00">Excl: 0.006 ms (0.3%)</text>
<text text-anchor="middle" x="389.12" y="-1182.35" font-family="Times,serif" font-size="12.00">1 total calls</text>
</g>
<!-- N12&#45;&gt;N3 -->
<g id="edge4" class="edge">
<title>N12&#45;&gt;N3</title>
<path fill="none" stroke="grey" d="M347.19,-1175.13C328.91,-1161.24 307.31,-1144.83 288.11,-1130.24"/>
<polygon fill="grey" stroke="grey" points="290.47,-1127.64 280.39,-1124.38 286.24,-1133.22 290.47,-1127.64"/>
<text text-anchor="middle" x="338.12" y="-1144.2" font-family="Times,serif" font-size="14.00">1 call</text>
<text text-anchor="middle" x="257.81" y="-1126.66" font-family="Times,serif" font-size="14.00">100.0%</text>
<text text-anchor="middle" x="332.56" y="-1161.83" font-family="Times,serif" font-size="14.00">5.5%</text>
</g>
<!-- N12&#45;&gt;N11 -->
<g id="edge13" class="edge">
<title>N12&#45;&gt;N11</title>
<path fill="none" stroke="grey" stroke-width="10" d="M431.61,-1175.13C447.62,-1163.13 466.14,-1149.24 483.43,-1136.27"/>
<polygon fill="grey" stroke="grey" stroke-width="10" points="488.93,-1154.02 494.43,-1128.02 467.93,-1126.02 488.93,-1154.02"/>
<text text-anchor="middle" x="491.12" y="-1144.2" font-family="Times,serif" font-size="14.00">1 call</text>
<text text-anchor="middle" x="479.13" y="-1126.66" font-family="Times,serif" font-size="14.00">100.0%</text>
<text text-anchor="middle" x="413.61" y="-1161.83" font-family="Times,serif" font-size="14.00">94.4%</text>
</g>
<!-- N13 -->
<g id="node14" class="node">
<title>N13</title>
<polygon fill="yellow" stroke="black" points="517.88,-1358 260.38,-1358 260.38,-1293 517.88,-1293 517.88,-1358"/>
<text text-anchor="middle" x="389.12" y="-1342.6" font-family="Times,serif" font-size="12.00">BEAR\Resource\ResourceObject::_invokeRequest</text>
<text text-anchor="middle" x="389.12" y="-1328.35" font-family="Times,serif" font-size="12.00">Inc: 1.740 ms (99.5%)</text>
<text text-anchor="middle" x="389.12" y="-1314.1" font-family="Times,serif" font-size="12.00">Excl: 0.002 ms (0.1%)</text>
<text text-anchor="middle" x="389.12" y="-1299.85" font-family="Times,serif" font-size="12.00">1 total calls</text>
</g>
<!-- N13&#45;&gt;N12 -->
<g id="edge14" class="edge">
<title>N13&#45;&gt;N12</title>
<path fill="none" stroke="grey" stroke-width="10" d="M389.12,-1292.63C389.12,-1283.17 389.12,-1272.53 389.12,-1262.09"/>
<polygon fill="grey" stroke="grey" stroke-width="10" points="406.63,-1268.36 389.13,-1248.36 371.63,-1268.36 406.63,-1268.36"/>
<text text-anchor="middle" x="404.12" y="-1261.7" font-family="Times,serif" font-size="14.00">1 call</text>
<text text-anchor="middle" x="367.75" y="-1243.96" font-family="Times,serif" font-size="14.00">100.0%</text>
<text text-anchor="middle" x="367.75" y="-1279.33" font-family="Times,serif" font-size="14.00">100.0%</text>
</g>
<!-- N14 -->
<g id="node15" class="node">
<title>N14</title>
<polygon fill="yellow" stroke="black" points="476.25,-1475.5 302,-1475.5 302,-1410.5 476.25,-1410.5 476.25,-1475.5"/>
<text text-anchor="middle" x="389.12" y="-1460.1" font-family="Times,serif" font-size="12.00">BEAR\Resource\Invoker::invoke</text>
<text text-anchor="middle" x="389.12" y="-1445.85" font-family="Times,serif" font-size="12.00">Inc: 1.741 ms (99.5%)</text>
<text text-anchor="middle" x="389.12" y="-1431.6" font-family="Times,serif" font-size="12.00">Excl: 0.001 ms (0.1%)</text>
<text text-anchor="middle" x="389.12" y="-1417.35" font-family="Times,serif" font-size="12.00">1 total calls</text>
</g>
<!-- N14&#45;&gt;N13 -->
<g id="edge15" class="edge">
<title>N14&#45;&gt;N13</title>
<path fill="none" stroke="grey" stroke-width="10" d="M389.12,-1410.13C389.12,-1400.67 389.12,-1390.03 389.12,-1379.59"/>
<polygon fill="grey" stroke="grey" stroke-width="10" points="406.63,-1385.86 389.13,-1365.86 371.63,-1385.86 406.63,-1385.86"/>
<text text-anchor="middle" x="404.12" y="-1379.2" font-family="Times,serif" font-size="14.00">1 call</text>
<text text-anchor="middle" x="367.75" y="-1361.46" font-family="Times,serif" font-size="14.00">100.0%</text>
<text text-anchor="middle" x="367.75" y="-1396.83" font-family="Times,serif" font-size="14.00">100.0%</text>
</g>
<!-- N15 -->
<g id="node16" class="node">
<title>N15</title>
<polygon fill="none" stroke="black" points="533.97,-1557.14 533.97,-1598.36 449.12,-1627.5 329.13,-1627.5 244.28,-1598.36 244.28,-1557.14 329.13,-1528 449.12,-1528 533.97,-1557.14"/>
<text text-anchor="middle" x="389.12" y="-1594.85" font-family="Times,serif" font-size="12.00">Total: 1.749 ms</text>
<text text-anchor="middle" x="389.12" y="-1580.6" font-family="Times,serif" font-size="12.00">XHProf Run (Namespace=resource)</text>
<text text-anchor="middle" x="389.12" y="-1566.35" font-family="Times,serif" font-size="12.00">Excl: 0.008 ms (0.5%)</text>
<text text-anchor="middle" x="389.12" y="-1552.1" font-family="Times,serif" font-size="12.00">1 total calls</text>
</g>
<!-- N15&#45;&gt;N14 -->
<g id="edge16" class="edge">
<title>N15&#45;&gt;N14</title>
<path fill="none" stroke="grey" stroke-width="10" d="M389.12,-1527.7C389.12,-1517.84 389.12,-1507.43 389.12,-1497.44"/>
<polygon fill="grey" stroke="grey" stroke-width="10" points="406.63,-1503.54 389.13,-1483.54 371.63,-1503.54 406.63,-1503.54"/>
<text text-anchor="middle" x="404.12" y="-1496.7" font-family="Times,serif" font-size="14.00">1 call</text>
<text text-anchor="middle" x="367.75" y="-1479.14" font-family="Times,serif" font-size="14.00">100.0%</text>
<text text-anchor="middle" x="367.75" y="-1514.4" font-family="Times,serif" font-size="14.00">100.0%</text>
</g>
</g>
</svg>
